<?xml version="1.0" standalone="no"?>
<!DOCTYPE svg PUBLIC "-//W3C//DTD SVG 1.1//EN" "http://www.w3.org/Graphics/SVG/1.1/DTD/svg11.dtd">
<svg xmlns="http://www.w3.org/2000/svg">
<metadata>Generated by Fontastic.me</metadata>
<defs>
<font id="iconfonts" horiz-adv-x="512">
<font-face font-family="iconfonts" units-per-em="512" ascent="480" descent="-32"/>
<missing-glyph horiz-adv-x="512" />

<glyph glyph-name="about" unicode="&#57344;" d="M459 488l-289 0c-20 0-37-16-37-37l0-37-61 0c-30 0-56-24-56-54l0-170c0-30 26-56 56-56l10 0 0-110 30 22c2 2 54 40 77 88l173 0c30 0 56 26 56 56l0 56 43 0c19 0 37 16 37 37l0 168c-2 21-18 37-39 37z m-80-298c0-9-8-17-17-17l-199 0-5-13c-8-21-24-40-38-54l0 67-48 0c-10 0-18 8-18 17l0 170c0 10 8 18 18 18l290 0c9 0 17-8 17-18z m-280 132l210 0 0-61-210 0z"/>
<glyph glyph-name="back" unicode="&#57345;" d="M344 16l-240 240 240 240 64-62-178-178 178-178z"/>
<glyph glyph-name="calendar" unicode="&#57346;" d="M146 366c20 0 36 16 36 37l0 37c0 21-16 37-36 37-21 0-37-16-37-37l0-37c0-19 16-37 37-37z m220 0c21 0 37 16 37 37l0 37c0 21-16 37-37 37-20 0-36-16-36-37l0-37c0-19 17-37 36-37z m74 74l-19 0 0-37c0-30-26-56-56-56-31 0-56 26-56 56l0 37-111 0 0-37c0-30-25-56-56-56-30 0-56 26-56 56l0 37-14 0c-30 0-56-24-56-54l0-296c0-31 26-56 56-56l370 0c30 0 56 25 56 56l0 296c-2 30-28 54-58 54z m19-350c0-10-8-20-19-20l-368 0c-10 0-19 8-19 20l0 222 406 0z m-221 104c-3 3-4 4-8 6 4 3 7 8 8 11 5 7 7 15 7 24 0 7-2 15-5 19-3 7-6 12-13 16-5 5-11 8-19 10-14 5-35 5-50 0-8-3-14-6-20-11-4-3-8-8-10-13-3-5-5-11-5-16 0-6 2-11 7-16 6-6 17-6 24-3 3 1 6 5 8 8 1 3 3 6 4 9 2 4 4 5 5 7 2 1 3 1 5 3 2 2 5 2 10 2 4 0 8-2 11-5 3-3 5-7 5-10 0-8-4-11-5-13-3-3-8-4-15-4l-4 0c-8 0-13-2-18-5-5-3-6-10-6-15 0-8 3-12 6-14 3-3 10-5 14-5 2 0 4 0 7 0 3 0 5 0 6 0 7 0 11-1 16-5 3-3 5-9 5-16 0-4-2-9-3-12-2-4-5-7-8-8-10-5-19-4-24 3-5 5-8 11-11 22-2 3-4 7-7 8-9 5-19 3-27-3-5-5-6-10-6-16 0-5 1-10 4-16 4-6 7-13 13-18 5-6 13-11 21-14 8-3 18-6 29-6 9 0 19 1 27 4 8 4 16 8 22 15 7 6 12 13 15 21 3 8 5 16 5 24 0 6-2 12-4 19-8 1-11 8-16 13z m120 84c-8 10-22 10-28 4-2-2-5-5-10-13-3-5-8-11-14-16-5-5-13-8-21-13-7-3-11-6-15-8-3-2-6-6-6-14 0-5 2-10 6-15 4-5 10-6 15-6 5 0 13 1 32 16l0-91c0-8 1-15 6-20 5-4 10-8 18-8 8 0 24 5 24 31l0 134c-2 8-3 15-7 19z"/>
<glyph glyph-name="check" unicode="&#57347;" d="M488 422l-19 18c-10 8-26 8-35-3l-247-274-112 101c-5 5-11 6-17 6-7 0-13-3-18-8l-18-19c-4-6-6-13-6-19 0-6 3-13 8-18l133-118 17-16c5-5 12-6 16-6 0 0 2 0 2 0 6 0 13 3 18 8l17 19 263 294c9 10 8 26-2 35z"/>
<glyph glyph-name="credit-card" unicode="&#57348;" d="M440 440l-368 0c-30 0-56-24-56-54l0-260c0-30 26-56 56-56l370 0c30 0 56 26 56 56l0 260c-2 30-28 54-58 54z m-368-37l370 0c9 0 19-8 19-19l0-37-408 0 0 39c0 9 8 17 19 17z m368-294l-368 0c-10 0-19 8-19 19l0 147 406 0 0-147c0-11-8-19-19-19z m-354 73l93 0 0-36-93 0z m120 0l148 0 0-36-148 0z"/>
<glyph glyph-name="degital" unicode="&#57349;" d="M99 496l43 0 0-214-43 0z m368-171l-126 0 0 43 129 0 0 128-171 0 0-43 128 0 0-42-128 0 0-129 168 0z m-427-95l0-43 128 0 0-43-128 0 0-42 128 0 0-43-128 0 0-43 171 0 0 214z m390-76l-86 0 0 76-43 0 0-120 129 0 0-94 42 0 0 214-42 0z"/>
<glyph glyph-name="delete" unicode="&#57350;" d="M426 432l-90 0 0 43c0 11-6 21-14 21l-133 0c-8 0-15-10-15-21l0-43-88 0c-9 0-16-10-16-21 0-11 7-21 15-21l341 0c8 0 14 10 14 21 0 11-5 21-14 21z m-143-75l-200 0 35-311c2-17 16-30 34-30l18 0-24 189c-2 13 6 24 19 25 13 2 24-6 25-19l24-195 92 0 25 194c2 12 13 20 26 19 13-2 21-13 19-26l-26-187 10 0c18 0 32 13 35 30l35 311z"/>
<glyph glyph-name="exchange" unicode="&#57351;" d="M364 178c0-8-6-14-14-14-8 0-14 6-14 14 0 8 6 14 14 14 8 0 14-6 14-14z m-227 129c0 0 76 57 157 51l0-48c0 0 73 61 94 83 5 4 5 7 0 11-7 6-94 81-94 81l0-55c0 0-86-8-132-57-23-26-25-66-25-66z m311-58l0 4c0 30-24 54-54 54l-330 0 0 19c0 10 9 18 18 18l39 0c4 10 8 20 17 29 1 2 4 4 7 7l-63 0c-29-2-54-24-54-54l0-245c0-30 25-54 54-54l313 0c30 0 54 24 54 54l0 20c20 6 36 24 36 45l0 59c-1 21-17 40-37 44z m-36-168c0-10-8-18-18-18l-313 0c-10 0-18 8-18 18l0 192 331 0c10 0 18-8 18-18l0-3-95 0c-25 0-47-22-47-47l0-59c0-25 22-46 47-46l95 0z m36 65c0-7-6-12-13-12l-118 0c-7 0-13 5-13 12l0 59c0 7 6 13 13 13l118 0c7 0 13-6 13-13z"/>
<glyph glyph-name="export" unicode="&#57352;" d="M379 338l-110 110c-2 2-3 3-7 3-1 2-4 2-6 2-2 0-5 0-6-2-2-1-5-1-7-5l-110-110c-8-8-8-19 0-26 8-8 19-8 25 0l80 80 0-222c0-10 8-19 20-19 9 0 19 8 19 19l0 222 80-80c8-8 19-8 25 0 5 8 5 20-3 28z m61-279l-368 0c-30 0-56 26-56 56l0 165c0 10 8 19 19 19 11 0 19-8 19-19l0-166c0-10 8-20 20-20l369 0c10 0 19 8 19 20l0 166c0 10 8 19 20 19 9 0 19-8 19-19l0-166c-5-31-31-55-61-55z"/>
<glyph glyph-name="filter" unicode="&#57353;" d="M35 336l48 0c10-40 47-72 90-72 43 0 80 30 89 72l216 0c10 0 20 8 20 19 0 11-8 19-20 19l-216 0c-8 44-44 77-91 77-46 0-83-35-89-78l-47 0c-11 0-19-8-19-18 0-9 8-19 19-19z m136 77c31 0 56-26 56-56 0-31-25-56-56-56-30 0-56 25-56 56 0 30 26 56 56 56z m306-243l-50 0c-8 43-45 76-91 76-46 0-83-33-91-76l-210 0c-9 0-19-8-19-20 0-11 8-19 19-19l215 0c9-40 46-72 89-72 43 0 80 31 90 72l49 0c10 0 20 8 20 19 0 12-10 20-21 20z m-139-71c-31 0-56 26-56 56 0 31 25 56 56 56 30 0 56-25 56-56 0-30-26-56-56-56z"/>
<glyph glyph-name="home" unicode="&#57354;" d="M480 301l-202 160c-6 5-14 8-24 8-8 0-16-3-24-8l-38-32 0 19c0 11-8 19-19 19l-56 0c-11 0-19-8-19-19l0-94-69-55c-29-21-13-65 22-65l42 0 0-151c0-21 17-38 38-38l245 0c21 0 38 17 38 38l0 151 42 0c37 0 51 44 24 67z m-66-31l-38 0 0-188-75 0 0 94-95 0 0-94-75 0 0 188-80 0 202 160 201-160z"/>
<glyph glyph-name="import" unicode="&#57355;" d="M243 154c2-2 3-4 7-5 1-2 4-2 6-2 2 0 5 0 6 2 2 1 5 1 7 3l110 110c8 8 8 20 0 26-8 8-19 8-25 0l-80-80 0 227c0 10-8 19-20 19-11 0-19-8-19-19l0-222-80 80c-8 8-19 8-25 0-8-8-8-19 0-26z m234 145c-10 0-19-8-19-19l0-166c0-10-8-20-20-20l-366 0c-10 0-19 8-19 20l0 166c0 10-8 19-19 19-10 0-20-8-20-19l0-166c0-31 26-56 56-56l370 0c30 0 56 25 56 56l0 166c0 11-8 19-19 19z"/>
<glyph glyph-name="lock" unicode="&#57356;" d="M429 283l-346 0c-14 0-27-11-27-27l0-213c0-14 11-27 27-27l347 0c15 0 28 11 28 27l0 213c-2 14-13 27-29 27z m-155-142l9-58-53 0 10 58c-13 6-22 19-22 35 0 22 17 40 40 40 22 0 40-18 40-40-2-16-12-29-24-35z m-85 168l0 120 133 0 0-120 67 0 0 120c0 37-31 67-67 67l-133 0c-37 0-66-30-66-67l0-120z"/>
<glyph glyph-name="login" unicode="&#57357;" d="M414 496l-316 0c-24 0-45-21-45-46l0-116 45 0 0 116 315 1 0-389-315-1 0 110-45 0 0-109c0-25 21-46 45-46l315 0c25 0 45 21 45 46l0 388c1 25-20 46-44 46z m-360-232c0-13 10-22 23-22l121 0-41-42c-10-10-10-22 0-32 5-5 9-6 16-6 6 0 11 1 16 6l80 80c9 10 9 22 0 32l-80 80c-10 10-23 10-32 0-10-10-10-22 0-32l41-42-121 0c-13 0-23-9-23-22z"/>
<glyph glyph-name="logout" unicode="&#57358;" d="M326 115l-126 0 0 282c0 8-6 16-14 19l-104 34 244-2 0-99 39 0 0 101c0 22-18 40-39 40l-272 0c-20 0-38-18-38-40l0-333c0-21 14-37 34-40l112-53c16-8 36 2 36 18l0 33 127 0c21 0 38 18 38 40l0 95-38 0 0-95z m164 189l-69 69c-8 8-19 8-27 0-8-8-8-19 0-27l35-36-104 0c-11 0-19-8-19-19 0-11 8-19 19-19l104 0-35-35c-8-8-8-19 0-27 3-4 8-7 14-7 5 0 10 2 14 7l69 68c7 5 7 18-1 26z"/>
<glyph glyph-name="lotto-ball" unicode="&#57359;" d="M496 256c0 3 0 5 0 8 0 5 0 10 0 14-11 122-115 218-240 218-125 0-229-96-238-219 0-5 0-8 0-13 0-3 0-5 0-8 0-32 6-62 17-91 23-55 64-98 117-123 0 0 0 0 0-2 32-16 67-24 104-24 37 0 70 8 101 22 0 0 0 0 0 2 54 26 97 70 120 125 13 29 19 59 19 91z m-346 202c-8-58-51-104-107-119 21 51 59 95 107 119z m-100-296c49-15 88-55 99-106-43 22-79 61-99 106z m206-74c-93 0-168 75-168 168 0 93 75 168 168 168 93 0 168-75 168-168 0-93-75-168-168-168z m104-34c11 53 51 95 102 108-20-47-57-85-102-108z m-2 405c50-25 90-69 111-121-59 14-103 62-111 121z"/>
<glyph glyph-name="lotto-game" unicode="&#57360;" d="M256 496c-133 0-240-107-240-240 0-133 107-240 240-240 133 0 240 107 240 240 0 133-107 240-240 240z m195-240c0-107-88-195-195-195-107 0-195 88-195 195 0 107 88 195 195 195 107 0 195-88 195-195z m-269-106l74 37 74-37-15 80 59 58-81 13-37 73-37-73-81-13 59-58z"/>
<glyph glyph-name="mail" unicode="&#57361;" d="M438 438l-364 0c-32 0-58-25-58-57l0-250c0-16 6-32 19-41 10-10 24-15 39-15l364 0c15 0 28 7 39 15 11 11 19 25 19 43l0 248c0 32-26 57-58 57z m-384-57c0 1 0 1 0 3l106-114-107-128 0 239z m221-147c-8-8-19-8-27 0l-157 166 341 0z m-88 8l34-36c11-11 25-17 41-17 16 0 31 6 42 17l32 34 99-130-357 0z m175 27l96 102 0-227z"/>
<glyph glyph-name="menu" unicode="&#57362;" d="M435 16l-358 0c-34 0-61 27-61 61l0 358c0 34 27 61 61 61l360 0c32 0 59-27 59-61l0-360c0-32-27-59-61-59z m-358 440c-11 0-19-10-19-19l0-360c0-11 9-19 19-19l360 0c11 0 19 9 19 19l0 358c0 11-10 19-19 19l-360 0z m320-120l-282 0c-9 0-19 10-19 19 0 10 10 19 19 19l280 0c11 0 19-9 19-19 0-9-8-19-17-19z m0-99l-282 0c-9 0-19 8-19 19 0 11 10 19 19 19l280 0c11 0 19-9 19-19 0-10-8-19-17-19z m0-101l-282 0c-11 0-19 10-19 19 0 10 10 21 19 21l280 0c11 0 19-10 19-19 0-10-8-21-17-21z"/>
<glyph glyph-name="money" unicode="&#57363;" d="M256 496c-133 0-240-107-240-240 0-133 107-240 240-240 133 0 240 107 240 240 0 133-107 240-240 240z m0-443c-112 0-203 91-203 203 0 112 91 203 203 203 112 0 203-91 203-203 0-112-91-203-203-203z m90 211c-10 5-21 10-36 13-14 3-28 6-46 9-13 4-24 5-29 5-5 0-11 3-17 5-7 2-10 5-13 8-3 3-5 6-5 11 0 7 5 13 14 18 10 5 23 8 39 8 17 0 29-2 37-7 8-4 14-11 19-19 5-6 8-9 11-13 3-3 10-3 16-3 8 0 14 2 19 7 5 4 8 9 8 14 0 6-1 11-6 18-5 6-11 11-19 17-10 5-21 10-34 13-6 2-13 3-21 3l0 27c0 12-11 20-25 20-15 0-26-8-26-20l0-27c-13-1-26-3-35-6-18-5-31-13-40-21-10-10-13-19-13-32 0-13 5-22 13-32 8-8 21-14 35-19 14-5 32-10 54-13 16-3 29-5 39-8 9-2 17-6 24-10 6-4 9-9 9-17 0-10-6-16-17-23-11-6-26-9-45-9-13 0-24 1-32 5-8 3-14 6-19 11-5 5-8 9-13 17-3 7-6 10-11 13-5 3-10 5-16 5-8 0-15-2-19-6-5-4-8-8-8-15 0-9 4-19 12-29 8-9 20-17 34-22 13-5 30-8 48-10l0-35c0-11 11-19 26-19 14 0 25 8 25 19l0 35c15 2 27 4 39 7 17 6 32 14 41 24 10 9 15 22 15 35 0 11-4 21-8 27-8 10-15 16-24 21z"/>
<glyph glyph-name="online-service" unicode="&#57364;" d="M462 302c-4 8-11 15-20 18-5 93-82 166-176 166l-18 0c-96 0-173-76-176-171-8-3-14-9-19-17-21-4-37-21-37-44l0-60c0-23 16-40 37-44 6-12 19-20 33-20 23 0 40 17 40 40l0 110c0 14-8 27-20 34 1 76 64 139 140 139l18 0c77 0 138-61 141-136-11-7-19-19-19-34l0-110c0-13 6-24 16-32-13-24-45-74-93-74-5 7-13 10-21 10l-45 0c-14 0-27-13-27-27 0-15 13-28 27-28l45 0c8 0 16 4 21 10 75 0 118 82 128 102 9 4 17 10 22 20 19 4 34 22 34 43l0 61c3 22-11 40-31 44z"/>
<glyph glyph-name="phone" unicode="&#57365;" d="M395 464l-213 32c-24 3-44-11-48-32l-54-373c-3-21 14-40 37-43l213-32c24-3 44 11 48 30l54 375c3 21-13 40-37 43z m-54-373l-213 32 45 298 213-32z"/>
<glyph glyph-name="read" unicode="&#57366;" d="M299 403l-155 0c-10 0-19-8-19-19 0-11 9-19 19-19l155 0c11 0 19 8 19 19 0 11-8 19-19 19z m0-77l-155 0c-11 0-19-8-19-19 0-11 8-19 19-19l155 0c11 0 19 8 19 19 0 10-8 19-19 19z m0-78l-155 0c-11 0-19-8-19-19 0-11 8-19 19-19l155 0c11 0 19 8 19 19 0 11-8 19-19 19z m107 155l-9 0 0 35c0 32-26 58-58 58l-233 0c-32 0-58-26-58-58l0-302c0-32 26-58 58-58l9 0 0-3c0-32 26-57 58-57l232 0c32 0 57 25 57 57l0 271c2 32-24 57-56 57z m-320-267l0 302c0 10 10 20 20 20l232 0c11 0 19-8 19-20l0-302c0-11-8-19-19-19l-232 0c-10 0-20 8-20 19z m340-62c0-12-8-20-20-20l-232 0c-11 0-19 8-19 20l0 3 184 0c32 0 58 25 58 57l0 231 9 0c12 0 20-8 20-19z"/>
<glyph glyph-name="records" unicode="&#57367;" d="M435 488l-245 0c-35 0-62-29-62-62l0-348c0-33 27-60 61-60l205 0 102 107 0 301c0 33-27 62-61 62z m-27-347c-19 0-35-18-35-42l0-41-183 0c-11 0-20 9-20 20l0 348c0 11 9 20 20 20l245 0c11 0 21-9 21-20l0-285-2-2-46 0z m-22 224l-164 0c-11 0-20-10-20-21 0-11 9-21 20-21l164 0c11 0 20 10 20 21 0 11-9 21-20 21z m0-82l-164 0c-11 0-20-9-20-21 0-11 9-20 20-20l164 0c11 0 20 9 20 20 0 12-9 21-20 21z m-370 197l82 0 0-54-82 0z m0-326l42-55 40 55 0 244-82 0z"/>
<glyph glyph-name="refresh" unicode="&#57368;" d="M458 274c0-7 1-13 1-18 0-112-91-203-203-203-54 0-104 22-141 57l50 50c9 10 3 27-11 27l-120 0c-10 0-16-6-16-16l0-120c0-14 17-21 27-11l45 45c41-43 100-69 166-69 133 0 240 107 240 240 0 6 0 13-2 18z m-404-39c0 7-1 13-1 21 0 112 91 203 203 203 54 0 104-22 141-57l-48-48c-10-10-3-28 11-28l120 0c10 0 16 7 16 16l0 120c0 15-18 21-27 12l-47-47c-43 43-100 69-166 69-133 0-240-107-240-240 0-6 0-14 2-21z"/>
<glyph glyph-name="search" unicode="&#57369;" d="M462 68l-64 64c37 37 61 90 61 147 0 115-92 207-207 207-117 2-209-92-209-206 0-114 92-207 207-207 39 0 74 11 106 28l69-70c6-5 12-7 19-7 7 0 13 3 18 7 10 12 10 27 0 37z m-371 212c0 88 71 159 159 159 88 0 160-71 160-159 0-88-72-159-160-159-88 0-159 71-159 159z m172 130c-13-2-23-12-23-26 2-13 12-23 26-23 30 2 43-20 45-23 5-8 13-12 22-12 4 0 7 1 11 3 12 5 16 21 10 32-3 3-30 51-91 49z"/>
<glyph glyph-name="trophy" unicode="&#57370;" d="M406 446l0 37-300 0 0-38-90 1 0-19c0-6 6-137 102-157 21-59 66-99 117-104l0-35-67 0c-30 0-53-35-53-83l0-19 280 0 0 19c0 48-22 83-53 83l-67 0 0 35c53 5 96 47 117 104 96 21 102 152 102 157l0 19z m-51-380l-198 0c3 16 11 25 14 25l173 0c2 0 8-8 11-25z m-297 342l49 0 0-62c0-12 2-23 3-34-36 21-49 69-52 96z m310-62c0-79-46-144-102-144l-21 0c-55 0-103 65-103 144l0 100 224 0 0-100z m35-32c2 11 3 20 3 33l0 61 50 0c-5-27-18-75-53-94z m-184-23l37 19 37-19-7 42 31 29-42 6-19 37-19-37-42-6 31-29z"/>
<glyph glyph-name="user" unicode="&#57371;" d="M371 285c3 9 5 21 5 32l0 59c0 66-54 120-120 120-66 0-120-54-120-120l0-61c0-11 2-21 5-32-61-24-104-85-104-152l0-93c0-1 0-1 0-3l0-19 419 0 19 2 2 19 0 96c0 67-43 128-106 152z m-195 91c0 45 35 80 80 80 45 0 80-35 80-80l0-61c0-45-35-80-80-80-45 0-80 35-80 80z m259-320l-358 0 0 77c0 51 33 97 81 115 23-32 58-53 100-53 41 0 76 21 99 53 48-18 81-64 81-115z m-288 210z m218 0z"/>
<glyph glyph-name="username" unicode="&#57372;" d="M256 496c-53 0-96-32-96-102 0-71 45-128 96-128 51 0 96 57 96 128 0 70-43 102-96 102z m-109-286c-32-12-59-29-77-53-4-7-6-15-6-23l0-80c0-20 18-38 38-38l308 0c20 0 38 18 38 38l0 80c0 10-3 18-10 26-17 24-44 40-73 51-35 13-74 18-109 18-35-2-74-7-109-19z"/>
<glyph glyph-name="wallet" unicode="&#57373;" d="M358 198c0-10-8-19-19-19-10 0-19 9-19 19 0 11 9 20 19 20 11 0 19-9 19-20z m109 87l-6 0 0 27c0 32-26 58-58 58l-329 0c-32 0-58-26-58-58l0-235c0-32 26-58 58-58l329 0c32 0 58 26 58 58l0 33 6 0c16 0 29 13 29 29l0 117c0 16-13 29-29 29z m-45-208c0-11-8-19-19-19l-329 0c-12 0-20 8-20 19l0 235c0 11 8 19 20 19l329 0c11 0 19-8 19-19l0-27-148 0c-16 0-29-13-29-29l0-117c0-16 13-29 29-29l148 0z m36 169l0-96-175 0 0 96z m-140 196l26-61 42 0-48 112-247-112 95 0z"/>
<glyph glyph-name="withdrawals" unicode="&#57374;" d="M264 264c3 10 2 19-5 27 0 0-1 2-1 2l-2 1c0 0-2 2-3 2-5 3-15 8-34 11l8 27c11-1 18-4 21-6l2-2 30 8-2 5c-1 3-1 5-3 8-6 10-21 16-37 19l5 16-32 0-5-16c-25-3-56-14-64-38-3-10-1-19 5-27 0-2 2-2 3-3 0 0 2-2 2-2 6-5 16-8 29-11l-8-27c-8 1-15 4-16 6l-2 2-30-8 3-4c2-3 2-4 3-8 7-9 18-16 34-19l-5-16 32 0 5 15c29 3 61 16 67 38z m-74 50c-9 1-14 4-16 6 2 3 10 8 23 11z m18-53l6 19c12-2 18-5 21-6-5-5-13-10-27-13z m254 195l-412 0c-20 0-34-14-34-34l0-68c0-20 14-34 34-34l20 0 0 37-17 0 0 62 54 0-85-309 44 0-12-54 252 0 113 363 39 0 0-62-36 0 0-37 39 0c19 0 33 14 33 34l0 68c2 20-12 34-32 34z m-316-38l184 0-82-271-178 0z m134-325l-179 0 3 17 171 0 93 309 13 0z"/>
<glyph glyph-name="work" unicode="&#57375;" d="M467 326l-56 0 40 40c11 12 11 29 0 40l-45 45c-4 5-12 8-19 8-8 0-14-3-19-8l-40-40 0 56c0 16-13 29-29 29l-85 0c-16 0-28-13-28-29l0-56-40 40c-5 7-13 8-20 8-8 0-14-3-19-8l-46-45c-7-4-10-12-10-20 0-8 3-15 8-20l40-40-54 0c-16 0-29-12-29-28l0-85c0-16 13-29 29-29l56 0-40-40c-11-11-11-29 0-40l45-45c4-5 12-8 19-8 6 0 14 3 19 8l40 40 0-56c0-16 13-29 29-29l85 0c16 0 28 13 28 29l0 56 40-40c5-5 13-8 20-8 8 0 14 3 19 8l45 45c4 5 8 13 8 19 0 8-4 15-8 19l-40 40 56 0c16 0 28 13 28 29l0 85c2 18-11 30-27 30z m-310-70c0 54 45 99 99 99 54 0 99-45 99-99 0-54-45-99-99-99-54 0-99 45-99 99z"/>
</font>
</defs>
</svg>
